# xmcd
#
# Track frame offsets: 
#        150
#        20160
#        30220
#        43197
#        59365
#        81362
#        95427
#        103875
#        123602
#        140135
#        157575
#        171315
#        190310
#        207065
#
# Disc length: 2892 seconds
#
# Revision: 0
# Processed by: cddbd v1.4PL0 Copyright (c) Steve Scherf et al.
# Submitted via: ExactAudioCopy v0.95a3
#
DISCID=c20b4a0e
DTITLE=Brian O'Blivion - Baddly Beaten, But Still Conscious
DYEAR=2001
DGENRE=Folk/Rock
TTITLE0=Financially Embarrassed
TTITLE1=Ridin' My Thumb To Mexico
TTITLE2=Reaching Out
TTITLE3=Clown Act
TTITLE4=Artificial Heart
TTITLE5=Hungry Eyeballs
TTITLE6=Happy For You
TTITLE7=Sentenced Man
TTITLE8=Never Dawn On You
TTITLE9='Bottom Feeder
TTITLE10=Mortality
TTITLE11=Commemorative Plate
TTITLE12=Campaign Promises
TTITLE13=Hope You Get Hurt
EXTD=
EXTT0=
EXTT1=
EXTT2=
EXTT3=
EXTT4=
EXTT5=
EXTT6=
EXTT7=
EXTT8=
EXTT9=
EXTT10=
EXTT11=
EXTT12=
EXTT13=
PLAYORDER=
